<?xml version="1.0" encoding="utf-8"?>
<!-- Generator: Adobe Illustrator 19.2.1, SVG Export Plug-In . SVG Version: 6.00 Build 0)  -->
<svg version="1.1" id="layer" xmlns="http://www.w3.org/2000/svg" xmlns:xlink="http://www.w3.org/1999/xlink" x="0px" y="0px"
	 viewBox="0 0 652 652" style="enable-background:new 0 0 652 652;" xml:space="preserve">
<style type="text/css">
	.st0{fill:#0168B5;}
</style>
<g>
	<path class="st0" d="M75.1,361.4c19.2,0,34.8-15.6,34.8-34.8c0-19.2-15.6-34.8-34.8-34.8c-19.2,0-34.8,15.6-34.8,34.8
		C40.3,345.8,55.9,361.4,75.1,361.4 M75.1,386.4c-33.1,0-59.9-26.8-59.9-59.9c0-33.1,26.8-59.9,59.9-59.9
		c33.1,0,59.8,26.8,59.8,59.8C134.9,359.6,108.2,386.4,75.1,386.4"/>
	<path class="st0" d="M442.2,361.3c19.2,0,34.8-15.6,34.8-34.8c0-19.2-15.6-34.8-34.8-34.8c-19.2,0-34.8,15.6-34.8,34.8
		C407.5,345.8,423,361.3,442.2,361.3 M442.2,386.4c-33.1,0-59.9-26.8-59.9-59.9c0-33.1,26.8-59.8,59.9-59.8
		c33.1,0,59.9,26.8,59.9,59.8C502.1,359.6,475.3,386.4,442.2,386.4"/>
	<path class="st0" d="M141.8,270.4v113.2h25.1v-92.4h27.4v92.4h25.1v-92.4h9.7c9.7,0,17.7,7.9,17.7,17.7v74.7h25.1v-74.1
		c0-22-17.9-39.9-39.9-39.9l-64.9,0C158.5,269.5,150.1,269.8,141.8,270.4"/>
	<path class="st0" d="M508.9,270.4v113.2H534v-92.4H562c9.8,0,17.7,7.9,17.7,17.7v74.7h25.1v-74.1c0-22-17.9-39.9-39.9-39.9H534
		C525.6,269.6,517.2,269.8,508.9,270.4"/>
	<path class="st0" d="M282.1,270.3v113.3h25.1v-92.4h29.6c9.8,0,17.7,7.9,17.7,17.7s-7.9,17.7-17.7,17.7h-21.7l38.8,57h30.8
		l-27.9-41c13.4-5.4,22.8-18.4,22.8-33.7c0-21.7-17.6-39.3-39.3-39.3l-33.1,0C298.7,269.5,290.3,269.8,282.1,270.3"/>
	<path class="st0" d="M622.1,371.8v-4.9h3.3c1.7,0,3.4,0.4,3.4,2.3c0,2.4-1.8,2.6-3.9,2.6H622.1z M622.1,373.8h2.8l4.2,6.9h2.7
		l-4.5-7c2.3-0.3,4.1-1.5,4.1-4.4c0-3.1-1.8-4.5-5.6-4.5h-6v15.8h2.4V373.8z M625,386.4c7.5,0,13.9-5.8,13.9-13.7
		c0-7.9-6.4-13.7-13.9-13.7c-7.5,0-13.9,5.8-13.9,13.7C611.1,380.6,617.5,386.4,625,386.4 M613.8,372.7c0-6.5,4.9-11.4,11.2-11.4
		c6.2,0,11.1,4.9,11.1,11.4c0,6.6-4.9,11.5-11.1,11.5C618.7,384.1,613.8,379.3,613.8,372.7"/>
</g>
<g>
	<path class="st0" d="M75.1,361.4c19.2,0,34.8-15.6,34.8-34.8c0-19.2-15.6-34.8-34.8-34.8c-19.2,0-34.8,15.6-34.8,34.8
		C40.3,345.8,55.9,361.4,75.1,361.4 M75.1,386.4c-33.1,0-59.9-26.8-59.9-59.9c0-33.1,26.8-59.9,59.9-59.9
		c33.1,0,59.8,26.8,59.8,59.8C134.9,359.6,108.2,386.4,75.1,386.4"/>
	<path class="st0" d="M442.2,361.3c19.2,0,34.8-15.6,34.8-34.8c0-19.2-15.6-34.8-34.8-34.8c-19.2,0-34.8,15.6-34.8,34.8
		C407.5,345.8,423,361.3,442.2,361.3 M442.2,386.4c-33.1,0-59.9-26.8-59.9-59.9c0-33.1,26.8-59.8,59.9-59.8
		c33.1,0,59.9,26.8,59.9,59.8C502.1,359.6,475.3,386.4,442.2,386.4"/>
	<path class="st0" d="M141.8,270.4v113.2h25.1v-92.4h27.4v92.4h25.1v-92.4h9.7c9.7,0,17.7,7.9,17.7,17.7v74.7h25.1v-74.1
		c0-22-17.9-39.9-39.9-39.9l-64.9,0C158.5,269.5,150.1,269.8,141.8,270.4"/>
	<path class="st0" d="M508.9,270.4v113.2H534v-92.4H562c9.8,0,17.7,7.9,17.7,17.7v74.7h25.1v-74.1c0-22-17.9-39.9-39.9-39.9H534
		C525.6,269.6,517.2,269.8,508.9,270.4"/>
	<path class="st0" d="M282.1,270.3v113.3h25.1v-92.4h29.6c9.8,0,17.7,7.9,17.7,17.7s-7.9,17.7-17.7,17.7h-21.7l38.8,57h30.8
		l-27.9-41c13.4-5.4,22.8-18.4,22.8-33.7c0-21.7-17.6-39.3-39.3-39.3l-33.1,0C298.7,269.5,290.3,269.8,282.1,270.3"/>
	<path class="st0" d="M622.1,371.8v-4.9h3.3c1.7,0,3.4,0.4,3.4,2.3c0,2.4-1.8,2.6-3.9,2.6H622.1z M622.1,373.8h2.8l4.2,6.9h2.7
		l-4.5-7c2.3-0.3,4.1-1.5,4.1-4.4c0-3.1-1.8-4.5-5.6-4.5h-6v15.8h2.4V373.8z M625,386.4c7.5,0,13.9-5.8,13.9-13.7
		c0-7.9-6.4-13.7-13.9-13.7c-7.5,0-13.9,5.8-13.9,13.7C611.1,380.6,617.5,386.4,625,386.4 M613.8,372.7c0-6.5,4.9-11.4,11.2-11.4
		c6.2,0,11.1,4.9,11.1,11.4c0,6.6-4.9,11.5-11.1,11.5C618.7,384.1,613.8,379.3,613.8,372.7"/>
</g>
</svg>
